<svg xmlns="http://www.w3.org/2000/svg" width="1536" height="731" style="cursor: move;"><g transform="translate(167.46035575013627,-43.054627680086924) scale(0.9999999999999998)"><path class="link" marker-end="" d="M437,215.5, 788,95.5" style="stroke-width: 0.62; stroke-opacity: 0.45; stroke: rgb(80, 80, 80);"></path><path class="link" marker-end="" d="M437,215.5, 788,135.5" style="stroke-width: 0.62; stroke-opacity: 0.45; stroke: rgb(80, 80, 80);"></path><path class="link" marker-end="" d="M437,215.5, 788,175.5" style="stroke-width: 0.62; stroke-opacity: 0.45; stroke: rgb(80, 80, 80);"></path><path class="link" marker-end="" d="M437,215.5, 788,215.5" style="stroke-width: 0.62; stroke-opacity: 0.45; stroke: rgb(80, 80, 80);"></path><path class="link" marker-end="" d="M437,215.5, 788,255.5" style="stroke-width: 0.62; stroke-opacity: 0.45; stroke: rgb(80, 80, 80);"></path><path class="link" marker-end="" d="M437,215.5, 788,295.5" style="stroke-width: 0.62; stroke-opacity: 0.45; stroke: rgb(80, 80, 80);"></path><path class="link" marker-end="" d="M437,215.5, 788,335.5" style="stroke-width: 0.62; stroke-opacity: 0.45; stroke: rgb(80, 80, 80);"></path><path class="link" marker-end="" d="M437,215.5, 788,375.5" style="stroke-width: 0.62; stroke-opacity: 0.45; stroke: rgb(80, 80, 80);"></path><path class="link" marker-end="" d="M437,215.5, 788,415.5" style="stroke-width: 0.62; stroke-opacity: 0.45; stroke: rgb(80, 80, 80);"></path><path class="link" marker-end="" d="M437,215.5, 788,455.5" style="stroke-width: 0.62; stroke-opacity: 0.45; stroke: rgb(80, 80, 80);"></path><path class="link" marker-end="" d="M437,215.5, 788,495.5" style="stroke-width: 0.62; stroke-opacity: 0.45; stroke: rgb(80, 80, 80);"></path><path class="link" marker-end="" d="M437,255.5, 788,95.5" style="stroke-width: 0.62; stroke-opacity: 0.45; stroke: rgb(80, 80, 80);"></path><path class="link" marker-end="" d="M437,255.5, 788,135.5" style="stroke-width: 0.62; stroke-opacity: 0.45; stroke: rgb(80, 80, 80);"></path><path class="link" marker-end="" d="M437,255.5, 788,175.5" style="stroke-width: 0.62; stroke-opacity: 0.45; stroke: rgb(80, 80, 80);"></path><path class="link" marker-end="" d="M437,255.5, 788,215.5" style="stroke-width: 0.62; stroke-opacity: 0.45; stroke: rgb(80, 80, 80);"></path><path class="link" marker-end="" d="M437,255.5, 788,255.5" style="stroke-width: 0.62; stroke-opacity: 0.45; stroke: rgb(80, 80, 80);"></path><path class="link" marker-end="" d="M437,255.5, 788,295.5" style="stroke-width: 0.62; stroke-opacity: 0.45; stroke: rgb(80, 80, 80);"></path><path class="link" marker-end="" d="M437,255.5, 788,335.5" style="stroke-width: 0.62; stroke-opacity: 0.45; stroke: rgb(80, 80, 80);"></path><path class="link" marker-end="" d="M437,255.5, 788,375.5" style="stroke-width: 0.62; stroke-opacity: 0.45; stroke: rgb(80, 80, 80);"></path><path class="link" marker-end="" d="M437,255.5, 788,415.5" style="stroke-width: 0.62; stroke-opacity: 0.45; stroke: rgb(80, 80, 80);"></path><path class="link" marker-end="" d="M437,255.5, 788,455.5" style="stroke-width: 0.62; stroke-opacity: 0.45; stroke: rgb(80, 80, 80);"></path><path class="link" marker-end="" d="M437,255.5, 788,495.5" style="stroke-width: 0.62; stroke-opacity: 0.45; stroke: rgb(80, 80, 80);"></path><path class="link" marker-end="" d="M437,295.5, 788,95.5" style="stroke-width: 0.62; stroke-opacity: 0.45; stroke: rgb(80, 80, 80);"></path><path class="link" marker-end="" d="M437,295.5, 788,135.5" style="stroke-width: 0.62; stroke-opacity: 0.45; stroke: rgb(80, 80, 80);"></path><path class="link" marker-end="" d="M437,295.5, 788,175.5" style="stroke-width: 0.62; stroke-opacity: 0.45; stroke: rgb(80, 80, 80);"></path><path class="link" marker-end="" d="M437,295.5, 788,215.5" style="stroke-width: 0.62; stroke-opacity: 0.45; stroke: rgb(80, 80, 80);"></path><path class="link" marker-end="" d="M437,295.5, 788,255.5" style="stroke-width: 0.62; stroke-opacity: 0.45; stroke: rgb(80, 80, 80);"></path><path class="link" marker-end="" d="M437,295.5, 788,295.5" style="stroke-width: 0.62; stroke-opacity: 0.45; stroke: rgb(80, 80, 80);"></path><path class="link" marker-end="" d="M437,295.5, 788,335.5" style="stroke-width: 0.62; stroke-opacity: 0.45; stroke: rgb(80, 80, 80);"></path><path class="link" marker-end="" d="M437,295.5, 788,375.5" style="stroke-width: 0.62; stroke-opacity: 0.45; stroke: rgb(80, 80, 80);"></path><path class="link" marker-end="" d="M437,295.5, 788,415.5" style="stroke-width: 0.62; stroke-opacity: 0.45; stroke: rgb(80, 80, 80);"></path><path class="link" marker-end="" d="M437,295.5, 788,455.5" style="stroke-width: 0.62; stroke-opacity: 0.45; stroke: rgb(80, 80, 80);"></path><path class="link" marker-end="" d="M437,295.5, 788,495.5" style="stroke-width: 0.62; stroke-opacity: 0.45; stroke: rgb(80, 80, 80);"></path><path class="link" marker-end="" d="M437,335.5, 788,95.5" style="stroke-width: 0.62; stroke-opacity: 0.45; stroke: rgb(80, 80, 80);"></path><path class="link" marker-end="" d="M437,335.5, 788,135.5" style="stroke-width: 0.62; stroke-opacity: 0.45; stroke: rgb(80, 80, 80);"></path><path class="link" marker-end="" d="M437,335.5, 788,175.5" style="stroke-width: 0.62; stroke-opacity: 0.45; stroke: rgb(80, 80, 80);"></path><path class="link" marker-end="" d="M437,335.5, 788,215.5" style="stroke-width: 0.62; stroke-opacity: 0.45; stroke: rgb(80, 80, 80);"></path><path class="link" marker-end="" d="M437,335.5, 788,255.5" style="stroke-width: 0.62; stroke-opacity: 0.45; stroke: rgb(80, 80, 80);"></path><path class="link" marker-end="" d="M437,335.5, 788,295.5" style="stroke-width: 0.62; stroke-opacity: 0.45; stroke: rgb(80, 80, 80);"></path><path class="link" marker-end="" d="M437,335.5, 788,335.5" style="stroke-width: 0.62; stroke-opacity: 0.45; stroke: rgb(80, 80, 80);"></path><path class="link" marker-end="" d="M437,335.5, 788,375.5" style="stroke-width: 0.62; stroke-opacity: 0.45; stroke: rgb(80, 80, 80);"></path><path class="link" marker-end="" d="M437,335.5, 788,415.5" style="stroke-width: 0.62; stroke-opacity: 0.45; stroke: rgb(80, 80, 80);"></path><path class="link" marker-end="" d="M437,335.5, 788,455.5" style="stroke-width: 0.62; stroke-opacity: 0.45; stroke: rgb(80, 80, 80);"></path><path class="link" marker-end="" d="M437,335.5, 788,495.5" style="stroke-width: 0.62; stroke-opacity: 0.45; stroke: rgb(80, 80, 80);"></path><path class="link" marker-end="" d="M437,375.5, 788,95.5" style="stroke-width: 0.62; stroke-opacity: 0.45; stroke: rgb(80, 80, 80);"></path><path class="link" marker-end="" d="M437,375.5, 788,135.5" style="stroke-width: 0.62; stroke-opacity: 0.45; stroke: rgb(80, 80, 80);"></path><path class="link" marker-end="" d="M437,375.5, 788,175.5" style="stroke-width: 0.62; stroke-opacity: 0.45; stroke: rgb(80, 80, 80);"></path><path class="link" marker-end="" d="M437,375.5, 788,215.5" style="stroke-width: 0.62; stroke-opacity: 0.45; stroke: rgb(80, 80, 80);"></path><path class="link" marker-end="" d="M437,375.5, 788,255.5" style="stroke-width: 0.62; stroke-opacity: 0.45; stroke: rgb(80, 80, 80);"></path><path class="link" marker-end="" d="M437,375.5, 788,295.5" style="stroke-width: 0.62; stroke-opacity: 0.45; stroke: rgb(80, 80, 80);"></path><path class="link" marker-end="" d="M437,375.5, 788,335.5" style="stroke-width: 0.62; stroke-opacity: 0.45; stroke: rgb(80, 80, 80);"></path><path class="link" marker-end="" d="M437,375.5, 788,375.5" style="stroke-width: 0.62; stroke-opacity: 0.45; stroke: rgb(80, 80, 80);"></path><path class="link" marker-end="" d="M437,375.5, 788,415.5" style="stroke-width: 0.62; stroke-opacity: 0.45; stroke: rgb(80, 80, 80);"></path><path class="link" marker-end="" d="M437,375.5, 788,455.5" style="stroke-width: 0.62; stroke-opacity: 0.45; stroke: rgb(80, 80, 80);"></path><path class="link" marker-end="" d="M437,375.5, 788,495.5" style="stroke-width: 0.62; stroke-opacity: 0.45; stroke: rgb(80, 80, 80);"></path><path class="link" marker-end="" d="M437,415.5, 788,95.5" style="stroke-width: 0.62; stroke-opacity: 0.45; stroke: rgb(80, 80, 80);"></path><path class="link" marker-end="" d="M437,415.5, 788,135.5" style="stroke-width: 0.62; stroke-opacity: 0.45; stroke: rgb(80, 80, 80);"></path><path class="link" marker-end="" d="M437,415.5, 788,175.5" style="stroke-width: 0.62; stroke-opacity: 0.45; stroke: rgb(80, 80, 80);"></path><path class="link" marker-end="" d="M437,415.5, 788,215.5" style="stroke-width: 0.62; stroke-opacity: 0.45; stroke: rgb(80, 80, 80);"></path><path class="link" marker-end="" d="M437,415.5, 788,255.5" style="stroke-width: 0.62; stroke-opacity: 0.45; stroke: rgb(80, 80, 80);"></path><path class="link" marker-end="" d="M437,415.5, 788,295.5" style="stroke-width: 0.62; stroke-opacity: 0.45; stroke: rgb(80, 80, 80);"></path><path class="link" marker-end="" d="M437,415.5, 788,335.5" style="stroke-width: 0.62; stroke-opacity: 0.45; stroke: rgb(80, 80, 80);"></path><path class="link" marker-end="" d="M437,415.5, 788,375.5" style="stroke-width: 0.62; stroke-opacity: 0.45; stroke: rgb(80, 80, 80);"></path><path class="link" marker-end="" d="M437,415.5, 788,415.5" style="stroke-width: 0.62; stroke-opacity: 0.45; stroke: rgb(80, 80, 80);"></path><path class="link" marker-end="" d="M437,415.5, 788,455.5" style="stroke-width: 0.62; stroke-opacity: 0.45; stroke: rgb(80, 80, 80);"></path><path class="link" marker-end="" d="M437,415.5, 788,495.5" style="stroke-width: 0.62; stroke-opacity: 0.45; stroke: rgb(80, 80, 80);"></path><path class="link" marker-end="" d="M437,455.5, 788,95.5" style="stroke-width: 0.62; stroke-opacity: 0.45; stroke: rgb(80, 80, 80);"></path><path class="link" marker-end="" d="M437,455.5, 788,135.5" style="stroke-width: 0.62; stroke-opacity: 0.45; stroke: rgb(80, 80, 80);"></path><path class="link" marker-end="" d="M437,455.5, 788,175.5" style="stroke-width: 0.62; stroke-opacity: 0.45; stroke: rgb(80, 80, 80);"></path><path class="link" marker-end="" d="M437,455.5, 788,215.5" style="stroke-width: 0.62; stroke-opacity: 0.45; stroke: rgb(80, 80, 80);"></path><path class="link" marker-end="" d="M437,455.5, 788,255.5" style="stroke-width: 0.62; stroke-opacity: 0.45; stroke: rgb(80, 80, 80);"></path><path class="link" marker-end="" d="M437,455.5, 788,295.5" style="stroke-width: 0.62; stroke-opacity: 0.45; stroke: rgb(80, 80, 80);"></path><path class="link" marker-end="" d="M437,455.5, 788,335.5" style="stroke-width: 0.62; stroke-opacity: 0.45; stroke: rgb(80, 80, 80);"></path><path class="link" marker-end="" d="M437,455.5, 788,375.5" style="stroke-width: 0.62; stroke-opacity: 0.45; stroke: rgb(80, 80, 80);"></path><path class="link" marker-end="" d="M437,455.5, 788,415.5" style="stroke-width: 0.62; stroke-opacity: 0.45; stroke: rgb(80, 80, 80);"></path><path class="link" marker-end="" d="M437,455.5, 788,455.5" style="stroke-width: 0.62; stroke-opacity: 0.45; stroke: rgb(80, 80, 80);"></path><path class="link" marker-end="" d="M437,455.5, 788,495.5" style="stroke-width: 0.62; stroke-opacity: 0.45; stroke: rgb(80, 80, 80);"></path><path class="link" marker-end="" d="M437,495.5, 788,95.5" style="stroke-width: 0.62; stroke-opacity: 0.45; stroke: rgb(80, 80, 80);"></path><path class="link" marker-end="" d="M437,495.5, 788,135.5" style="stroke-width: 0.62; stroke-opacity: 0.45; stroke: rgb(80, 80, 80);"></path><path class="link" marker-end="" d="M437,495.5, 788,175.5" style="stroke-width: 0.62; stroke-opacity: 0.45; stroke: rgb(80, 80, 80);"></path><path class="link" marker-end="" d="M437,495.5, 788,215.5" style="stroke-width: 0.62; stroke-opacity: 0.45; stroke: rgb(80, 80, 80);"></path><path class="link" marker-end="" d="M437,495.5, 788,255.5" style="stroke-width: 0.62; stroke-opacity: 0.45; stroke: rgb(80, 80, 80);"></path><path class="link" marker-end="" d="M437,495.5, 788,295.5" style="stroke-width: 0.62; stroke-opacity: 0.45; stroke: rgb(80, 80, 80);"></path><path class="link" marker-end="" d="M437,495.5, 788,335.5" style="stroke-width: 0.62; stroke-opacity: 0.45; stroke: rgb(80, 80, 80);"></path><path class="link" marker-end="" d="M437,495.5, 788,375.5" style="stroke-width: 0.62; stroke-opacity: 0.45; stroke: rgb(80, 80, 80);"></path><path class="link" marker-end="" d="M437,495.5, 788,415.5" style="stroke-width: 0.62; stroke-opacity: 0.45; stroke: rgb(80, 80, 80);"></path><path class="link" marker-end="" d="M437,495.5, 788,455.5" style="stroke-width: 0.62; stroke-opacity: 0.45; stroke: rgb(80, 80, 80);"></path><path class="link" marker-end="" d="M437,495.5, 788,495.5" style="stroke-width: 0.62; stroke-opacity: 0.45; stroke: rgb(80, 80, 80);"></path><path class="link" marker-end="" d="M788,55.5, 1139,355.5" style="stroke-width: 0.62; stroke-opacity: 0.45; stroke: rgb(80, 80, 80);"></path><path class="link" marker-end="" d="M788,95.5, 1139,355.5" style="stroke-width: 0.62; stroke-opacity: 0.45; stroke: rgb(80, 80, 80);"></path><path class="link" marker-end="" d="M788,135.5, 1139,355.5" style="stroke-width: 0.62; stroke-opacity: 0.45; stroke: rgb(80, 80, 80);"></path><path class="link" marker-end="" d="M788,175.5, 1139,355.5" style="stroke-width: 0.62; stroke-opacity: 0.45; stroke: rgb(80, 80, 80);"></path><path class="link" marker-end="" d="M788,215.5, 1139,355.5" style="stroke-width: 0.62; stroke-opacity: 0.45; stroke: rgb(80, 80, 80);"></path><path class="link" marker-end="" d="M788,255.5, 1139,355.5" style="stroke-width: 0.62; stroke-opacity: 0.45; stroke: rgb(80, 80, 80);"></path><path class="link" marker-end="" d="M788,295.5, 1139,355.5" style="stroke-width: 0.62; stroke-opacity: 0.45; stroke: rgb(80, 80, 80);"></path><path class="link" marker-end="" d="M788,335.5, 1139,355.5" style="stroke-width: 0.62; stroke-opacity: 0.45; stroke: rgb(80, 80, 80);"></path><path class="link" marker-end="" d="M788,375.5, 1139,355.5" style="stroke-width: 0.62; stroke-opacity: 0.45; stroke: rgb(80, 80, 80);"></path><path class="link" marker-end="" d="M788,415.5, 1139,355.5" style="stroke-width: 0.62; stroke-opacity: 0.45; stroke: rgb(80, 80, 80);"></path><path class="link" marker-end="" d="M788,455.5, 1139,355.5" style="stroke-width: 0.62; stroke-opacity: 0.45; stroke: rgb(80, 80, 80);"></path><path class="link" marker-end="" d="M788,495.5, 1139,355.5" style="stroke-width: 0.62; stroke-opacity: 0.45; stroke: rgb(80, 80, 80);"></path><path class="link" style="stroke-width: 0.62; stroke-opacity: 0.45; stroke: rgb(80, 80, 80);" marker-end="" d="M437,215.5, 788,535.5"></path><path class="link" style="stroke-width: 0.62; stroke-opacity: 0.45; stroke: rgb(80, 80, 80);" marker-end="" d="M437,215.5, 788,575.5"></path><path class="link" style="stroke-width: 0.62; stroke-opacity: 0.45; stroke: rgb(80, 80, 80);" marker-end="" d="M437,215.5, 788,615.5"></path><path class="link" style="stroke-width: 0.62; stroke-opacity: 0.45; stroke: rgb(80, 80, 80);" marker-end="" d="M437,215.5, 788,655.5"></path><path class="link" style="stroke-width: 0.62; stroke-opacity: 0.45; stroke: rgb(80, 80, 80);" marker-end="" d="M437,255.5, 788,535.5"></path><path class="link" style="stroke-width: 0.62; stroke-opacity: 0.45; stroke: rgb(80, 80, 80);" marker-end="" d="M437,255.5, 788,575.5"></path><path class="link" style="stroke-width: 0.62; stroke-opacity: 0.45; stroke: rgb(80, 80, 80);" marker-end="" d="M437,255.5, 788,615.5"></path><path class="link" style="stroke-width: 0.62; stroke-opacity: 0.45; stroke: rgb(80, 80, 80);" marker-end="" d="M437,255.5, 788,655.5"></path><path class="link" style="stroke-width: 0.62; stroke-opacity: 0.45; stroke: rgb(80, 80, 80);" marker-end="" d="M437,295.5, 788,535.5"></path><path class="link" style="stroke-width: 0.62; stroke-opacity: 0.45; stroke: rgb(80, 80, 80);" marker-end="" d="M437,295.5, 788,575.5"></path><path class="link" style="stroke-width: 0.62; stroke-opacity: 0.45; stroke: rgb(80, 80, 80);" marker-end="" d="M437,295.5, 788,615.5"></path><path class="link" style="stroke-width: 0.62; stroke-opacity: 0.45; stroke: rgb(80, 80, 80);" marker-end="" d="M437,295.5, 788,655.5"></path><path class="link" style="stroke-width: 0.62; stroke-opacity: 0.45; stroke: rgb(80, 80, 80);" marker-end="" d="M437,335.5, 788,535.5"></path><path class="link" style="stroke-width: 0.62; stroke-opacity: 0.45; stroke: rgb(80, 80, 80);" marker-end="" d="M437,335.5, 788,575.5"></path><path class="link" style="stroke-width: 0.62; stroke-opacity: 0.45; stroke: rgb(80, 80, 80);" marker-end="" d="M437,335.5, 788,615.5"></path><path class="link" style="stroke-width: 0.62; stroke-opacity: 0.45; stroke: rgb(80, 80, 80);" marker-end="" d="M437,335.5, 788,655.5"></path><path class="link" style="stroke-width: 0.62; stroke-opacity: 0.45; stroke: rgb(80, 80, 80);" marker-end="" d="M437,375.5, 788,535.5"></path><path class="link" style="stroke-width: 0.62; stroke-opacity: 0.45; stroke: rgb(80, 80, 80);" marker-end="" d="M437,375.5, 788,575.5"></path><path class="link" style="stroke-width: 0.62; stroke-opacity: 0.45; stroke: rgb(80, 80, 80);" marker-end="" d="M437,375.5, 788,615.5"></path><path class="link" style="stroke-width: 0.62; stroke-opacity: 0.45; stroke: rgb(80, 80, 80);" marker-end="" d="M437,375.5, 788,655.5"></path><path class="link" style="stroke-width: 0.62; stroke-opacity: 0.45; stroke: rgb(80, 80, 80);" marker-end="" d="M437,415.5, 788,535.5"></path><path class="link" style="stroke-width: 0.62; stroke-opacity: 0.45; stroke: rgb(80, 80, 80);" marker-end="" d="M437,415.5, 788,575.5"></path><path class="link" style="stroke-width: 0.62; stroke-opacity: 0.45; stroke: rgb(80, 80, 80);" marker-end="" d="M437,415.5, 788,615.5"></path><path class="link" style="stroke-width: 0.62; stroke-opacity: 0.45; stroke: rgb(80, 80, 80);" marker-end="" d="M437,415.5, 788,655.5"></path><path class="link" style="stroke-width: 0.62; stroke-opacity: 0.45; stroke: rgb(80, 80, 80);" marker-end="" d="M437,455.5, 788,535.5"></path><path class="link" style="stroke-width: 0.62; stroke-opacity: 0.45; stroke: rgb(80, 80, 80);" marker-end="" d="M437,455.5, 788,575.5"></path><path class="link" style="stroke-width: 0.62; stroke-opacity: 0.45; stroke: rgb(80, 80, 80);" marker-end="" d="M437,455.5, 788,615.5"></path><path class="link" style="stroke-width: 0.62; stroke-opacity: 0.45; stroke: rgb(80, 80, 80);" marker-end="" d="M437,455.5, 788,655.5"></path><path class="link" style="stroke-width: 0.62; stroke-opacity: 0.45; stroke: rgb(80, 80, 80);" marker-end="" d="M437,495.5, 788,535.5"></path><path class="link" style="stroke-width: 0.62; stroke-opacity: 0.45; stroke: rgb(80, 80, 80);" marker-end="" d="M437,495.5, 788,575.5"></path><path class="link" style="stroke-width: 0.62; stroke-opacity: 0.45; stroke: rgb(80, 80, 80);" marker-end="" d="M437,495.5, 788,615.5"></path><path class="link" style="stroke-width: 0.62; stroke-opacity: 0.45; stroke: rgb(80, 80, 80);" marker-end="" d="M437,495.5, 788,655.5"></path><path class="link" style="stroke-width: 0.62; stroke-opacity: 0.45; stroke: rgb(80, 80, 80);" marker-end="" d="M788,535.5, 1139,355.5"></path><path class="link" style="stroke-width: 0.62; stroke-opacity: 0.45; stroke: rgb(80, 80, 80);" marker-end="" d="M788,575.5, 1139,355.5"></path><path class="link" style="stroke-width: 0.62; stroke-opacity: 0.45; stroke: rgb(80, 80, 80);" marker-end="" d="M788,615.5, 1139,355.5"></path><path class="link" style="stroke-width: 0.62; stroke-opacity: 0.45; stroke: rgb(80, 80, 80);" marker-end="" d="M788,655.5, 1139,355.5"></path><path class="link" style="stroke-width: 0.62; stroke-opacity: 0.45; stroke: rgb(80, 80, 80);" marker-end="" d="M437,215.5, 788,55.5"></path><path class="link" style="stroke-width: 0.62; stroke-opacity: 0.45; stroke: rgb(80, 80, 80);" marker-end="" d="M437,255.5, 788,55.5"></path><path class="link" style="stroke-width: 0.62; stroke-opacity: 0.45; stroke: rgb(80, 80, 80);" marker-end="" d="M437,295.5, 788,55.5"></path><path class="link" style="stroke-width: 0.62; stroke-opacity: 0.45; stroke: rgb(80, 80, 80);" marker-end="" d="M437,335.5, 788,55.5"></path><path class="link" style="stroke-width: 0.62; stroke-opacity: 0.45; stroke: rgb(80, 80, 80);" marker-end="" d="M437,375.5, 788,55.5"></path><path class="link" style="stroke-width: 0.62; stroke-opacity: 0.45; stroke: rgb(80, 80, 80);" marker-end="" d="M437,415.5, 788,55.5"></path><path class="link" style="stroke-width: 0.62; stroke-opacity: 0.45; stroke: rgb(80, 80, 80);" marker-end="" d="M437,455.5, 788,55.5"></path><path class="link" style="stroke-width: 0.62; stroke-opacity: 0.45; stroke: rgb(80, 80, 80);" marker-end="" d="M437,495.5, 788,55.5"></path><circle r="14.5" class="node" id="0_0" cx="437" cy="215.5" style="fill: rgb(255, 255, 255); stroke: rgb(51, 51, 51);"></circle><circle r="14.5" class="node" id="0_1" cx="437" cy="255.5" style="fill: rgb(255, 255, 255); stroke: rgb(51, 51, 51);"></circle><circle r="14.5" class="node" id="0_2" cx="437" cy="295.5" style="fill: rgb(255, 255, 255); stroke: rgb(51, 51, 51);"></circle><circle r="14.5" class="node" id="0_3" cx="437" cy="335.5" style="fill: rgb(255, 255, 255); stroke: rgb(51, 51, 51);"></circle><circle r="14.5" class="node" id="0_4" cx="437" cy="375.5" style="fill: rgb(255, 255, 255); stroke: rgb(51, 51, 51);"></circle><circle r="14.5" class="node" id="0_5" cx="437" cy="415.5" style="fill: rgb(255, 255, 255); stroke: rgb(51, 51, 51);"></circle><circle r="14.5" class="node" id="0_6" cx="437" cy="455.5" style="fill: rgb(255, 255, 255); stroke: rgb(51, 51, 51);"></circle><circle r="14.5" class="node" id="0_7" cx="437" cy="495.5" style="fill: rgb(255, 255, 255); stroke: rgb(51, 51, 51);"></circle><circle r="14.5" class="node" id="1_0" cx="788" cy="55.5" style="fill: rgb(255, 255, 255); stroke: rgb(51, 51, 51);"></circle><circle r="14.5" class="node" id="1_1" cx="788" cy="95.5" style="fill: rgb(255, 255, 255); stroke: rgb(51, 51, 51);"></circle><circle r="14.5" class="node" id="1_2" cx="788" cy="135.5" style="fill: rgb(255, 255, 255); stroke: rgb(51, 51, 51);"></circle><circle r="14.5" class="node" id="1_3" cx="788" cy="175.5" style="fill: rgb(255, 255, 255); stroke: rgb(51, 51, 51);"></circle><circle r="14.5" class="node" id="1_4" cx="788" cy="215.5" style="fill: rgb(255, 255, 255); stroke: rgb(51, 51, 51);"></circle><circle r="14.5" class="node" id="1_5" cx="788" cy="255.5" style="fill: rgb(255, 255, 255); stroke: rgb(51, 51, 51);"></circle><circle r="14.5" class="node" id="1_6" cx="788" cy="295.5" style="fill: rgb(255, 255, 255); stroke: rgb(51, 51, 51);"></circle><circle r="14.5" class="node" id="1_7" cx="788" cy="335.5" style="fill: rgb(255, 255, 255); stroke: rgb(51, 51, 51);"></circle><circle r="14.5" class="node" id="1_8" cx="788" cy="375.5" style="fill: rgb(255, 255, 255); stroke: rgb(51, 51, 51);"></circle><circle r="14.5" class="node" id="1_9" cx="788" cy="415.5" style="fill: rgb(255, 255, 255); stroke: rgb(51, 51, 51);"></circle><circle r="14.5" class="node" id="1_10" cx="788" cy="455.5" style="fill: rgb(255, 255, 255); stroke: rgb(51, 51, 51);"></circle><circle r="14.5" class="node" id="1_11" cx="788" cy="495.5" style="fill: rgb(255, 255, 255); stroke: rgb(51, 51, 51);"></circle><circle r="14.5" class="node" id="1_12" style="fill: rgb(255, 255, 255); stroke: rgb(51, 51, 51);" cx="788" cy="535.5"></circle><circle r="14.5" class="node" id="1_13" style="fill: rgb(255, 255, 255); stroke: rgb(51, 51, 51);" cx="788" cy="575.5"></circle><circle r="14.5" class="node" id="1_14" style="fill: rgb(255, 255, 255); stroke: rgb(51, 51, 51);" cx="788" cy="615.5"></circle><circle r="14.5" class="node" id="1_15" style="fill: rgb(255, 255, 255); stroke: rgb(51, 51, 51);" cx="788" cy="655.5"></circle><circle r="14.5" class="node" id="2_0" cx="1139" cy="355.5" style="fill: rgb(255, 255, 255); stroke: rgb(51, 51, 51);"></circle><text class="text" dy=".35em" x="402" y="695.5" style="font-size: 12px;">Input Layer ∈ ℝ⁸</text><text class="text" dy=".35em" x="753" y="695.5" style="font-size: 12px;">Hidden Layer ∈ ℝ¹⁶</text><text class="text" dy=".35em" x="1104" y="695.5" style="font-size: 12px;">Output Layer ∈ ℝ¹</text></g><defs><marker id="arrow" viewBox="0 -5 10 10" markerWidth="7" markerHeight="7" orient="auto" refX="52.599999999999994"><path d="M0,-5L10,0L0,5" style="stroke: rgb(80, 80, 80); fill: rgb(80, 80, 80);"></path></marker></defs></svg>